<?xml version="1.0" encoding="UTF-8"?>
<svg id="Capa_2" data-name="Capa 2" xmlns="http://www.w3.org/2000/svg" viewBox="0 0 54.29 55.79">
  <g id="Capa_1-2" data-name="Capa 1">
    <path fill="white" d="M40.77,39.51c3.88,3.7,7.7,7.36,11.53,11,1.31,1.24,2.96,2.63,1.28,4.41-1.78,1.89-3.33,.29-4.72-1.04-3.25-3.13-6.62-6.15-9.75-9.39-1.51-1.56-2.59-1.58-4.48-.55-11.53,6.29-25.82,1.95-31.9-9.53C-3.32,23.02,1.01,8.94,12.46,2.74,21.82-2.33,33.71-.2,40.96,7.84c7.07,7.84,7.89,19.8,1.95,28.63-.65,.97-1.34,1.91-2.15,3.04Zm1.86-16.12c-.02-10.51-8.58-19.12-19.05-19.14-10.63-.02-19.36,8.64-19.36,19.2,0,10.51,8.82,19.22,19.41,19.18,10.4-.04,19.01-8.76,18.99-19.25Z"/>
  </g>
</svg>